<?xml version="1.0" encoding="UTF-8"?>
<svg id="Layer_1" data-name="Layer 1" xmlns="http://www.w3.org/2000/svg" viewBox="0 0 275.73 47.31">
  <defs>
    <style>
      .cls-1 {
        fill: #fff;
      }
    </style>
  </defs>
  <path class="cls-1" d="M20.73,25.34c-.14,0-.43,.01-.43,.02-1.16,.05-3.61,.11-5.82-.04l.02-2.1s2.17,.04,4.3-.22c6.56-.86,6.52-5.47,6.52-5.47-4.1,5.86-13.68,2.93-13.68,2.93,.38,.88,.58,2.6,.68,4.61-.88-.16-1.58-.38-1.92-.7,0,0,.07,5.44-1.5,7.17,0,0,1.48-.47,3.47-1.07-.05,3.24-.22,5.95-.22,5.95l-2.49,4.19c-2.26-1.77-4.55-3.84-4.67-5.03-.23-2.16,.89-21.1,1.13-25.06,3.01,1.78,9.99,5.07,13.77,3.58,4.39-1.74,4.99-6.52,4.99-6.52-9.99,8.56-15.16-2.08-15.16-2.08,0,0-9.73,7.24-9.73,12.94v16.77c0,3.21,8.19,10.34,13.79,12.1,0,0,7.49-7.23,8.93-13.75,1.43-6.52,3.71-9.64,3.71-9.64,0,0-2.65,1.24-5.49,1.41-.04,0-.11,0-.21,.01Zm-6.21,18.95s-2.17-1.61-4.23-3.19l3.86-4.75,.28-6.49c1.83-.53,3.79-1.08,5.34-1.45-.83,4.36-2.37,12.58-5.26,15.88Z"/>
  <path class="cls-1" d="M52.5,14.13c4.39-1.74,4.99-6.52,4.99-6.52-9.99,8.56-15.16-2.08-15.16-2.08,0,0-9.73,7.24-9.73,12.94v7c-2.42-1.63-4.69-3.2-5.31-3.77,0,0,2.87,4.43,1.91,6.21,0,0,1.37,.76,3.4,1.63v4.26c0,3.22,8.13,11.74,13.74,13.5,0,0,3.04-6.25,11.15-6.25,0,0-4.79-4.05-13.65,1.59,0,0-2.22-1.88-3.47-3.26-1.85-2.03-2.65-4.07-2.77-5.21-.05-.42-.04-1.45,0-2.84,1.51,.42,3.07,.72,4.55,.79,0,0,6.08-5.21,11.29-4,0,0-2.52-1.82-7.38-2.43-4.86-.61-6.43,4.43-6.43,4.43,0,0-.78-.5-1.93-1.27,.27-6.14,.87-15.54,1.03-18.3,3.01,1.78,9.99,5.07,13.77,3.58Z"/>
  <path class="cls-1" d="M73.33,22.96c-1.7-1.6-3.69-3.03-5.36-3.57v-.02s0,0-.02,.01c-.01,0-.03,0-.04-.01v.04c-.32,.25-2.09,1.62-3.69,3.39-.46,.51-.9,1.05-1.3,1.6-.83,1.18-1.43,2.42-1.43,3.57v10.2c0,.8,.77,2.11,1.93,3.49,.53,.63,1.14,1.28,1.79,1.9,1.72,1.62,3.68,3.06,5.36,3.59h0s1.99-1.49,3.75-3.43c.46-.51,.9-1.05,1.3-1.6,.83-1.18,1.43-2.42,1.43-3.57v-10.2c0-.81-.77-2.11-1.93-3.49-.53-.63-1.14-1.28-1.8-1.9Zm-.45,18.79c-.04,.62-.07,1.14-.09,1.49-.36,.56-1.51,1.41-1.51,1.41-.3-.06-.63-.19-.94-.35-.7-.35-1.34-.83-1.34-.83,0,0-1.4-1.18-2.19-2.05-.19-.21-.37-.43-.53-.63-.79-1.06-1.15-2.05-1.22-2.65-.12-1.16,.38-9.64,.62-13.38,.04-.62,.07-1.14,.1-1.49,.22-.51,1.44-1.87,1.44-1.87,.33,.19,.66,.41,.96,.62,.75,.52,1.38,1.02,1.38,1.02,0,0,1.4,1.18,2.19,2.05,.19,.21,.37,.43,.53,.64,.79,1.05,1.15,2.05,1.22,2.65,.13,1.16-.37,9.64-.62,13.38Z"/>
  <path class="cls-1" d="M121.77,25.34c-.14,0-.43,.01-.43,.02-1.16,.05-3.61,.11-5.82-.04l.02-2.1s2.17,.04,4.3-.22c6.56-.86,6.51-5.47,6.51-5.47-4.1,5.86-13.68,2.93-13.68,2.93,.38,.88,.58,2.6,.68,4.61-.88-.16-1.58-.38-1.92-.7,0,0,.07,5.44-1.5,7.17,0,0,1.48-.47,3.47-1.07-.05,3.24-.22,5.95-.22,5.95l-2.49,4.19c-2.26-1.77-4.55-3.84-4.67-5.03-.23-2.16,.89-21.1,1.13-25.06,3.01,1.78,9.99,5.07,13.77,3.58,4.39-1.74,4.99-6.52,4.99-6.52-9.99,8.56-15.16-2.08-15.16-2.08,0,0-9.73,7.24-9.73,12.94v16.77c0,3.21,8.19,10.34,13.79,12.1,0,0,7.49-7.23,8.93-13.75,1.43-6.52,3.71-9.64,3.71-9.64,0,0-2.65,1.24-5.49,1.41-.04,0-.11,0-.21,.01Zm-6.21,18.95s-2.17-1.61-4.23-3.19l3.86-4.75,.28-6.49c1.83-.53,3.79-1.08,5.34-1.45-.83,4.36-2.37,12.58-5.26,15.88Z"/>
  <path class="cls-1" d="M153.54,13.88c4.39-1.74,4.99-6.52,4.99-6.52-9.99,8.56-15.16-2.08-15.16-2.08,0,0-9.73,7.24-9.73,12.94v7.25c-2.42-1.63-4.69-3.2-5.31-3.77,0,0,2.87,4.43,1.91,6.21,0,0,1.37,.76,3.4,1.63v4.26c0,3.22,8.13,11.74,13.74,13.5,0,0,3.04-6.25,11.15-6.25,0,0-4.79-4.05-13.65,1.59,0,0-2.22-1.88-3.47-3.26-1.85-2.03-2.65-4.07-2.77-5.21-.05-.42-.04-1.45,0-2.84,1.51,.42,3.07,.72,4.55,.79,0,0,6.08-5.21,11.29-4,0,0-2.52-1.82-7.38-2.43-4.87-.61-6.43,4.43-6.43,4.43,0,0-.78-.51-1.94-1.27,.26-6.21,.87-15.78,1.03-18.56,3.01,1.78,9.99,5.07,13.77,3.58Z"/>
  <path class="cls-1" d="M88.46,19.37s-2.67,1.99-4.58,4.42c-.61-.93-1.76-2.06-3.72-1.81-3.24,.41-4.91,1.62-4.91,1.62,2.92-.68,6.16,1.86,7.14,2.63-.3,.67-.4,1.13-.4,1.76v16.05l3.96,3.14s.62-1.01,.95-1.21c.78-.49,1.97-.52,1.97-.52l-3.06-2.54c-.16-1.43,.46-16.85,.62-19.48,2,1.19,6.29,2.68,8.8,1.68,2.92-1.16,3.32-4.33,3.32-4.33-6.65,5.69-10.09-1.39-10.09-1.39Z"/>
  <path class="cls-1" d="M177.04,19.34l-.21,.08-.19,.11-.11,.05-.19,.08-.19,.05-.11,.05-.19,.05-.19,.03-.24,.08-.43,.05-.13,.03h-.67l-.38-.05h-.16l-.16-.03-.19-.05-.43-.11-.16-.05-.13-.05-.13-.03-.4-.16-.27-.16-.19-.08-.16-.08-.11-.11-.16-.08-.19-.08-.05-.03-.11-.08-.27-.16-.3-.13-.19-.16-.16-.11-.19-.08-.05-.08-.19-.11-.16-.03-.13-.05-.19-.16-.11-.05-.19-.05-.24-.13-.19-.11-.19-.13-.27-.05-.05-.05-.19-.13-.27-.11-.21-.08-.21-.05-.19-.19-.24-.11-.11-.03-.32-.19-.48-.16-.19-.08-.27-.16,.13-.24,.05-.19v-.05l.13-.16,.03-.21,.05-.19,.05-.13,.11-.16,.08-.13-.03-.08,.05-.11,.11-.24,.03-.16-.03-.11,.13-.27,.03-.21v-.11l.11-.13-.03-.13,.08-.32,.08-.27,.03-.16,.13-.19v-.27l.05-.27,.05-.19,.05-.11v-.16l.05-.38,.03-.11,.05-.3,.08-.13v-.24l.05-.08,.21-.11,.08-.08,.05-.13,.16-.05,.05-.11,.19,.03,.21-.11,.11-.11,.21-.05,.11-.19,.16-.05,.13-.16,.11-.03,.11-.13h.11l.11-.11,.13-.08,.11-.11,.13-.19,.16-.05,.21-.16,.05-.08,.24-.11,.16-.11,.13-.03,.11-.16,.27-.27,.11-.05,.19-.13,.13-.16v-.03l.11-.11,.27-.21,.24-.16,.03-.13,.16-.05,.19-.16,.08-.13,.16-.11,.21-.19v-.11l.13-.08,.11-.16,.19-.05,.11-.19,.19-.13,.08-.11,.11-.13,.13-.11,.05-.11,.11-.08,.11-.16,.08-.32,.13-.24,.05-.24-.03-.3v-.24l-.05-.11-.08-.13-.08-.16-.19-.16-.21-.08-.11-.08-.24-.11-.16-.03-.27-.03-.21-.08h-.21l-.16,.08h-.11l-.27,.08h-.19l-.11,.11-.13-.03-.11,.08-.32,.16-.11-.03-.05,.13-.13,.11-.19,.05-.05,.03-.13-.03-.11,.11-.05,.08-.3,.16-.13,.11-.21,.11-.03,.19-.08,.05-.21,.16-.16,.13-.21,.08-.03,.24-.03,.13-.21,.11-.11,.11-.03,.16h-.16l-.19,.13-.08,.13v.19l-.21,.08-.03,.13-.16,.13-.03,.21-.13,.16-.16,.05-.05,.11-.05,.24-.08,.13-.03,.13-.05,.05v.08l-.03,.11-.11,.16-.08,.19-.03,.21-.13,.13,.05,.13-.16,.13-.08,.19-.03,.19-.08,.19,.05,.03-.19,.21,.03,.19-.13,.24,.05,.16-.03,.21-.11,.16-.13,.05-.03,.16-.11,.03-.11,.21-.21,.05-.19,.11-.27,.13-.35,.19-.11,.11-.19,.08-.13,.11h-.13l-.16,.08-.13,.16h-.21l-.19,.08-.03,.08h-.19l-.08,.08-.21,.11-.19,.03-.11,.11-.16,.11-.13,.05h-.21l-.19,.05-.13,.03-.13,.13-.24,.05-.19,.16,.08,.11,.16,.11,.11,.11,.05,.13,.05,.05,.27,.03,.13,.08,.19-.03,.19-.11,.16-.16,.27-.13,.08-.16,.38-.19,.19-.03,.08-.03,.13-.08,.08-.11,.21-.13,.19-.19,.35-.16,.27-.08,.13-.11,.19-.05,.19-.13,.3-.13,.13,.05-.05,.11v.19l-.13,.32,.11,.08-.13,.3v.16l.08,.08-.13,.21-.05,.27v.19l-.03,.13v.13l-.05,.13-.08,.16-.03,.11-.08,.3-.11,.19v.24l.05,.11-.13,.13v.16l-.13,.05-.08,.13,.03,.24-.05,.16-.19,.38-.08,.08-.11,.3-.03,.13-.21,.27h-.27l-.16-.03-.32,.11-.32,.05-.08,.05-.24,.05-.16,.03-.21,.05-.13,.13-.21,.08v.08l-.19,.05-.32,.13-.19,.21-.19,.16-.11,.03-.05,.13-.35,.21-.03,.08-.27,.38-.03,.05-.21,.11-.03,.13-.11,.08-.03,.08-.13,.21-.08,.13v.05l-.08,.19-.16,.3v.11l.05,.11-.11,.32,.08,.11-.08,.24v.19l.05,.16-.05,.13,.11,.16v.16l.05,.05,.13,.16,.24,.27,.19,.05,.13,.13h.21l.13,.08,.16-.08h.16l.24-.05,.16-.05,.21-.11,.13-.05,.13-.16,.16-.03,.11-.16,.19-.11,.11-.13,.08-.19,.27-.24,.05-.13,.13-.21,.16-.11,.19-.32,.24-.24,.08-.21,.13-.19,.03-.08,.11-.21,.16-.19,.08-.19,.08-.16,.05-.24,.13-.27,.16-.21,.08-.03,.11-.24,.16-.16,.03-.05,.16,.13,.13,.03h.13l.24,.16,.11,.11h.19l.16,.05,.19,.11,.16-.03,.08,.11,.21,.03,.16,.05,.16,.11,.21,.08,.11,.11,.19,.08,.11,.03h.08l.11,.08,.21,.11,.19,.08,.11,.11,.16,.05,.16,.13,.16,.08,.38,.21,.19,.13,.16,.05,.13,.08,.13,.05,.32,.16,.08,.05,.08,.08,.16,.08,.13,.05,.16,.08,.13,.05,.13,.08,.16,.11,.19,.08,.32,.13,.3,.13,.32,.13,.21,.08,.21,.05,.19,.05,.24,.05,.48,.08h.21l.19,.03h.35l.19,.03,.19-.05h.29l.56-.16,.24-.05,.19-.05,.27-.08,.16-.05,.21-.08,.11-.08,.11-.05,.13-.05,.24-.11,.11-.08,.05-.11-.11-.21-.13-.03Zm-9.82-11l.03-.35,.05-.16,.03-.11,.03-.13,.05-.19,.03-.13,.13-.4,.05-.13,.05-.11,.08-.13,.11-.38,.11-.08v-.11l.08-.05,.13-.19,.13-.21,.13-.13,.03-.19,.16-.21,.05-.13,.19-.21,.05-.08,.11-.19,.16-.19,.24-.19,.08-.11,.19-.13,.13-.05,.05-.16,.19-.05,.21-.05,.08-.16,.11-.03,.19-.11,.03-.11h.19l.05-.08,.19-.08,.16-.08,.21-.08,.13-.13,.3-.05,.21-.13,.16-.03,.16,.03,.08,.05,.32,.03,.19,.05,.19,.08,.13,.3-.03,.21-.08,.21-.13,.21-.08,.19-.16,.19-.21,.08v.19l-.16,.13-.08,.05-.08,.08-.13,.08-.13,.05-.08,.19-.11,.11-.16,.19-.11,.08-.11,.11-.08,.13-.16,.13-.13,.05-.16,.03-.03,.16-.24,.11-.08,.13-.11,.16h-.16l-.19,.21-.16,.13-.16,.21-.19,.13-.08,.05-.21,.08-.03,.16-.19,.11-.16,.05-.21,.19-.21,.16-.4,.4-.11,.05-.19,.08-.11,.13-.21,.13-.21,.11h-.16l.03-.19Zm-3.51,8.34l-.08,.08v.13l.03,.11-.13,.05-.05,.08-.16,.32,.03,.08-.19,.27-.08,.11-.11,.19h-.11v.19l-.03,.11-.08,.13v.08l-.19,.13v.19l-.21,.05,.03,.08-.05,.21-.16,.21-.3,.3-.05,.13-.11,.21-.19,.16-.21,.08-.11,.03,.03,.11-.27,.16-.08,.05-.13,.03-.16,.16h-.19l-.16-.03-.05-.16-.05-.03v-.21l-.13-.03v-.29l-.03-.16v-.19l.03-.16-.03-.08,.05-.11,.03-.13,.03-.16v-.08l.08-.16,.05-.16,.11-.16,.03-.08,.08-.13,.11-.19,.11-.05,.08-.13,.08-.08,.08-.16,.11-.08,.24-.16,.13-.16h.11l.05-.16,.13-.03,.19-.05,.05-.19,.11-.08h.21l.03-.13,.21-.03,.19-.13,.11-.05,.24-.03h.24l.16-.03h.13l.19,.03v.19Z"/>
  <polygon class="cls-1" points="180.26 16.55 180.02 16.8 179.94 16.82 179.78 16.96 179.45 17.09 179.32 17.14 179.08 17.12 178.86 17.14 178.7 17.04 178.54 16.96 178.41 16.69 178.3 16.26 178.3 15.99 178.25 15.7 178.3 15.35 178.35 15.16 178.33 14.97 178.38 14.78 178.43 14.54 178.54 14.43 178.6 14.17 178.6 14.09 178.7 13.76 178.7 13.52 178.86 13.28 178.92 13.07 178.89 12.96 179 12.77 179.03 12.53 179.11 12.4 179.19 12.23 179.16 12.02 179.35 11.86 179.48 11.59 179.48 11.35 179.67 11.08 179.75 10.76 179.83 10.62 180.13 10.01 180.1 9.85 180.18 9.58 180.02 9.44 179.64 9.42 179.53 9.52 179.37 9.63 179.21 9.82 179.19 9.98 179.03 10.14 178.76 10.57 178.73 10.71 178.49 10.97 178.46 11.11 178.33 11.22 178.17 11.43 178.09 11.62 177.92 11.83 177.79 11.97 177.66 12.13 177.55 12.29 177.28 12.61 177.09 12.88 176.88 13.09 176.8 13.23 176.56 13.55 176.48 13.63 176.45 13.76 176.29 13.87 176.26 14.01 176.13 14.14 176.02 14.41 175.75 14.6 175.7 14.73 175.59 14.94 175.51 15 175.35 15.21 175.21 15.4 174.89 15.75 174.87 15.91 174.62 16.15 174.54 16.29 174.46 16.37 174.41 16.53 174.2 16.69 174.14 16.8 174.01 16.88 173.9 16.93 173.66 16.8 173.66 16.61 173.69 16.34 173.74 15.88 173.85 15.7 173.98 15.4 174.03 15.11 174.06 14.97 174.11 14.84 174.14 14.7 174.17 14.46 174.25 14.33 174.25 14.11 174.3 13.95 174.33 13.74 174.46 13.36 174.52 13.23 174.52 13.04 174.6 12.91 174.65 12.74 174.81 12.45 174.84 12.29 174.87 12.07 174.92 11.91 174.97 11.78 175.08 11.4 175.16 11.24 175.32 10.6 175.4 10.41 175.38 10.22 175.4 10.09 175.38 9.98 175.32 9.85 175.24 9.71 175.16 9.61 174.97 9.52 174.65 9.42 174.28 9.42 174.11 9.55 174.01 9.63 173.93 9.69 173.82 9.74 173.69 9.85 173.66 9.87 173.44 10.14 173.23 10.36 173.07 10.49 172.91 10.68 172.8 10.81 172.69 10.97 172.59 11.11 172.42 11.32 172.29 11.46 172.29 11.62 172.37 11.7 172.53 11.81 172.69 11.75 172.93 11.46 173.18 11.32 173.26 11.13 173.63 10.76 173.95 10.46 174.14 10.28 174.44 10.03 174.6 10.03 174.7 10.2 174.7 10.44 174.54 10.73 174.49 10.97 174.38 11.32 174.22 11.75 174.14 11.94 174.14 12.29 174.01 12.56 173.9 12.61 173.9 12.88 173.82 12.93 173.77 13.28 173.63 13.55 173.63 13.71 173.58 13.93 173.52 14.03 173.39 14.17 173.44 14.46 173.39 14.65 173.2 14.89 173.18 15.08 173.15 15.29 173.1 15.51 172.96 15.83 172.88 15.91 172.93 16.21 172.85 16.29 172.91 16.5 172.85 16.58 172.85 16.85 172.91 17.14 173.01 17.33 173.07 17.44 173.2 17.55 173.42 17.6 173.66 17.63 173.85 17.63 174.03 17.55 174.28 17.49 174.57 17.33 174.73 17.09 174.97 16.88 175.16 16.63 175.24 16.53 175.4 16.29 175.64 16.04 175.75 15.83 175.86 15.67 175.94 15.53 176.05 15.4 176.18 15.21 176.26 15.13 176.4 14.94 176.48 14.81 176.56 14.65 176.72 14.46 176.85 14.27 176.96 14.14 177.07 13.98 177.33 13.6 177.6 13.12 177.84 12.8 178.11 12.37 178.43 11.94 178.54 11.83 178.65 11.83 178.62 11.99 178.57 12.07 178.3 12.85 178.19 13.25 178.03 13.63 178.01 13.95 177.9 14.17 177.84 14.46 177.76 14.7 177.71 14.94 177.66 15.32 177.6 15.67 177.58 15.99 177.58 16.34 177.63 16.53 177.66 16.74 177.84 17.17 177.9 17.25 178.17 17.52 178.6 17.63 178.73 17.6 179.03 17.6 179.35 17.55 179.53 17.52 179.8 17.41 179.94 17.31 180.04 17.2 180.23 17.09 180.42 16.66 180.39 16.55 180.26 16.55"/>
  <polygon class="cls-1" points="188.9 9.55 188.66 9.63 188.55 9.58 188.47 9.63 188.28 9.74 188.17 9.74 188.09 9.85 187.96 10.01 187.66 10.22 187.5 10.44 187.29 10.62 187.21 10.81 187.07 10.87 186.97 11 186.72 11.22 186.4 11.54 186.24 11.75 186.08 11.83 185.89 12.07 185.6 12.32 185.44 12.45 185.22 12.72 184.82 13.01 184.74 12.8 184.6 12.21 184.47 12.07 184.5 11.81 184.44 11.59 184.26 11.32 184.2 11.05 184.15 10.81 184.18 10.57 184.31 10.2 184.2 10.01 184.04 9.77 183.72 9.85 183.42 9.85 183.26 10.09 183.29 10.41 183.37 10.6 183.4 10.68 183.45 10.89 183.5 11.16 183.59 11.46 183.64 11.64 183.72 11.78 183.69 11.99 183.75 12.15 183.8 12.37 183.85 12.69 183.93 12.91 184.01 13.2 184.15 13.55 183.93 13.79 183.77 13.98 183.67 14.06 183.5 14.27 183.32 14.46 183.18 14.65 182.97 14.89 182.75 15.11 182.67 15.27 182.51 15.45 182.35 15.62 182.16 15.83 181.95 16.1 181.79 16.26 181.68 16.42 181.55 16.53 181.44 16.72 181.17 17.01 180.96 17.23 180.85 17.49 181.04 17.71 181.33 17.71 181.55 17.52 181.71 17.41 181.87 17.28 182.03 17.06 182.19 16.96 182.38 16.69 182.46 16.55 182.62 16.42 182.75 16.18 183.05 15.94 183.45 15.45 183.56 15.24 183.77 15.05 183.99 14.81 184.47 14.22 184.63 14.6 184.71 14.84 184.85 15.16 184.98 15.29 185.03 15.48 185.11 15.67 185.25 15.8 185.3 16.04 185.38 16.18 185.52 16.29 185.57 16.45 185.97 16.98 186.13 17.12 186.3 17.17 186.38 17.25 186.59 17.41 186.8 17.44 187.02 17.57 187.5 17.68 187.8 17.68 188.15 17.65 188.5 17.49 188.71 17.25 189.11 16.85 189.19 16.72 189.22 16.61 189.14 16.53 189.01 16.58 188.84 16.8 188.66 16.93 188.44 17.06 188.23 17.17 188.01 17.23 187.77 17.17 187.66 17.14 187.4 17.12 187.15 16.96 186.8 16.77 186.64 16.61 186.51 16.5 186.43 16.45 186.24 16.21 186.03 15.94 185.87 15.64 185.76 15.37 185.62 15.19 185.52 14.94 185.41 14.84 185.38 14.6 185.3 14.54 185.3 14.35 185.22 14.22 185.25 14.09 185.11 13.95 185.11 13.71 185.44 13.33 185.81 13.01 185.95 12.91 186.13 12.72 186.38 12.53 186.48 12.45 186.59 12.26 186.78 12.07 186.91 11.91 187.1 11.78 187.31 11.56 187.42 11.38 187.56 11.32 187.69 11.19 187.8 11.11 187.99 10.89 188.09 10.76 188.25 10.68 188.44 10.52 188.63 10.33 188.84 10.28 189.06 10.12 189.25 9.93 189.27 9.77 189.17 9.63 188.9 9.55"/>
  <polygon class="cls-1" points="197.38 16.55 197.13 16.8 197.05 16.82 196.89 16.96 196.57 17.09 196.44 17.14 196.19 17.12 195.98 17.14 195.82 17.04 195.66 16.96 195.52 16.69 195.42 16.26 195.42 15.99 195.36 15.7 195.42 15.35 195.47 15.16 195.44 14.97 195.5 14.78 195.55 14.54 195.66 14.43 195.71 14.17 195.71 14.09 195.82 13.76 195.82 13.52 195.98 13.28 196.03 13.07 196.01 12.96 196.11 12.77 196.14 12.53 196.22 12.4 196.3 12.23 196.28 12.02 196.46 11.86 196.6 11.59 196.6 11.35 196.79 11.08 196.87 10.76 196.95 10.62 197.24 10.01 197.21 9.85 197.3 9.58 197.13 9.44 196.76 9.42 196.65 9.52 196.49 9.63 196.33 9.82 196.3 9.98 196.14 10.14 195.87 10.57 195.85 10.71 195.6 10.97 195.58 11.11 195.44 11.22 195.28 11.43 195.2 11.62 195.04 11.83 194.91 11.97 194.77 12.13 194.67 12.29 194.4 12.61 194.21 12.88 193.99 13.09 193.91 13.23 193.67 13.55 193.59 13.63 193.57 13.76 193.4 13.87 193.38 14.01 193.24 14.14 193.14 14.41 192.87 14.6 192.81 14.73 192.71 14.94 192.63 15 192.47 15.21 192.33 15.4 192.01 15.75 191.98 15.91 191.74 16.15 191.66 16.29 191.58 16.37 191.53 16.53 191.31 16.69 191.26 16.8 191.12 16.88 191.02 16.93 190.78 16.8 190.78 16.61 190.8 16.34 190.86 15.88 190.96 15.7 191.1 15.4 191.15 15.11 191.18 14.97 191.23 14.84 191.26 14.7 191.29 14.46 191.37 14.33 191.37 14.11 191.42 13.95 191.45 13.74 191.58 13.36 191.63 13.23 191.63 13.04 191.71 12.91 191.77 12.74 191.93 12.45 191.96 12.29 191.98 12.07 192.04 11.91 192.09 11.78 192.2 11.4 192.28 11.24 192.44 10.6 192.52 10.41 192.49 10.22 192.52 10.09 192.49 9.98 192.44 9.85 192.36 9.71 192.28 9.61 192.09 9.52 191.77 9.42 191.39 9.42 191.23 9.55 191.12 9.63 191.04 9.69 190.94 9.74 190.8 9.85 190.78 9.87 190.56 10.14 190.35 10.36 190.19 10.49 190.02 10.68 189.92 10.81 189.81 10.97 189.7 11.11 189.54 11.32 189.41 11.46 189.41 11.62 189.49 11.7 189.65 11.81 189.81 11.75 190.05 11.46 190.29 11.32 190.37 11.13 190.75 10.76 191.07 10.46 191.26 10.28 191.55 10.03 191.71 10.03 191.82 10.2 191.82 10.44 191.66 10.73 191.61 10.97 191.5 11.32 191.34 11.75 191.26 11.94 191.26 12.29 191.12 12.56 191.02 12.61 191.02 12.88 190.94 12.93 190.88 13.28 190.75 13.55 190.75 13.71 190.69 13.93 190.64 14.03 190.51 14.17 190.56 14.46 190.51 14.65 190.32 14.89 190.29 15.08 190.27 15.29 190.21 15.51 190.08 15.83 190 15.91 190.05 16.21 189.97 16.29 190.02 16.5 189.97 16.58 189.97 16.85 190.02 17.14 190.13 17.33 190.19 17.44 190.32 17.55 190.53 17.6 190.78 17.63 190.96 17.63 191.15 17.55 191.39 17.49 191.69 17.33 191.85 17.09 192.09 16.88 192.28 16.63 192.36 16.53 192.52 16.29 192.76 16.04 192.87 15.83 192.98 15.67 193.06 15.53 193.16 15.4 193.3 15.21 193.38 15.13 193.51 14.94 193.59 14.81 193.67 14.65 193.83 14.46 193.97 14.27 194.08 14.14 194.18 13.98 194.45 13.6 194.72 13.12 194.96 12.8 195.23 12.37 195.55 11.94 195.66 11.83 195.77 11.83 195.74 11.99 195.69 12.07 195.42 12.85 195.31 13.25 195.15 13.63 195.12 13.95 195.01 14.17 194.96 14.46 194.88 14.7 194.83 14.94 194.77 15.32 194.72 15.67 194.69 15.99 194.69 16.34 194.75 16.53 194.77 16.74 194.96 17.17 195.01 17.25 195.28 17.52 195.71 17.63 195.85 17.6 196.14 17.6 196.46 17.55 196.65 17.52 196.92 17.41 197.05 17.31 197.16 17.2 197.35 17.09 197.54 16.66 197.51 16.55 197.38 16.55"/>
  <polygon class="cls-1" points="201.32 11.11 201.43 10.92 201.48 10.87 201.61 10.62 201.72 10.54 201.78 10.49 201.86 10.38 201.96 10.33 202.12 10.12 202.23 10.03 202.37 9.93 202.45 9.87 202.58 9.74 202.74 9.61 202.79 9.5 202.9 9.39 203.04 9.28 203.17 9.2 203.49 8.93 203.65 8.83 203.79 8.75 204.06 8.61 204.22 8.51 204.32 8.48 204.49 8.48 204.65 8.59 204.78 8.67 204.86 8.85 204.83 9.04 204.83 9.36 204.78 9.52 204.78 9.63 204.7 9.79 204.59 9.93 204.57 10.12 204.57 10.22 204.7 10.28 205.02 10.3 205.21 10.14 205.37 9.98 205.42 9.85 205.45 9.66 205.56 9.47 205.56 9.42 205.59 9.28 205.64 9.15 205.64 8.83 205.59 8.61 205.5 8.4 205.4 8.32 205.34 8.16 205.29 8.02 205.16 7.97 204.97 7.78 204.89 7.67 204.67 7.67 204.46 7.65 204.32 7.65 204.16 7.7 204.06 7.73 203.98 7.75 203.81 7.83 203.68 7.92 203.52 7.97 203.44 8.05 203.28 8.1 203.17 8.18 202.77 8.51 202.66 8.61 202.55 8.67 202.42 8.8 202.31 8.93 202.23 9.02 202.15 9.12 202.07 9.2 201.94 9.31 201.86 9.42 201.72 9.55 201.69 9.61 201.56 9.69 201.51 9.66 201.59 9.34 201.69 8.96 201.75 8.69 201.78 8.45 201.78 8.29 201.75 8.16 201.72 8.05 201.69 7.86 201.64 7.83 201.53 7.75 201.48 7.65 201.37 7.62 201.18 7.59 201.18 7.51 200.97 7.46 200.76 7.49 200.65 7.57 200.57 7.57 200.33 7.59 200.19 7.7 200.06 7.78 199.98 7.86 199.9 7.92 199.74 8.13 199.63 8.21 199.49 8.37 199.36 8.59 199.28 8.72 199.17 8.91 199.09 9.04 198.96 9.28 198.82 9.42 198.85 9.58 198.93 9.66 199.09 9.74 199.25 9.69 199.47 9.36 199.71 9.07 199.9 8.77 200.43 8.24 200.73 8.13 200.92 8.16 201 8.24 201.08 8.37 201.1 8.56 201.08 8.67 201 8.91 200.97 9.02 200.97 9.12 200.89 9.2 200.89 9.47 200.86 9.55 200.81 9.66 200.78 9.77 200.78 9.87 200.73 9.93 200.73 10.09 200.62 10.2 200.62 10.28 200.57 10.44 200.54 10.49 200.54 10.54 200.57 10.62 200.43 10.79 200.38 10.92 200.38 11.05 200.35 11.16 200.27 11.24 200.22 11.46 200.14 11.64 200.14 11.72 200.08 11.81 200.06 11.94 199.95 12.13 199.98 12.21 199.9 12.32 199.87 12.53 199.82 12.66 199.79 12.8 199.76 12.91 199.74 12.96 199.71 12.99 199.63 13.15 199.63 13.28 199.6 13.36 199.44 13.55 199.41 13.68 199.44 13.74 199.36 13.82 199.41 13.9 199.39 14.06 199.28 14.17 199.25 14.33 199.17 14.52 199.09 14.65 199.04 14.68 199.09 14.86 198.98 14.89 198.96 15.03 198.98 15.19 198.98 15.24 198.85 15.35 198.88 15.51 198.93 15.72 198.98 15.78 198.96 15.86 199.09 15.88 199.36 15.91 199.52 15.86 199.68 15.91 199.82 15.7 199.82 15.51 199.9 15.37 199.9 15.29 200 15.11 200 15.05 200.06 14.86 200.03 14.84 200.08 14.73 200.11 14.52 200.08 14.38 200.14 14.33 200.25 14.17 200.27 14.11 200.25 13.98 200.3 13.9 200.3 13.66 200.38 13.55 200.46 13.39 200.46 13.17 200.62 13.01 200.62 12.85 200.65 12.74 200.65 12.58 200.7 12.4 200.81 12.34 200.89 12.15 200.86 12.1 200.92 12.02 200.92 11.91 201.05 11.83 201.05 11.72 201.13 11.56 201.13 11.43 201.18 11.32 201.27 11.32 201.29 11.19 201.32 11.11"/>
  <path class="cls-1" d="M216.29,14.46l-.11-.05h-.27l-.16-.03-.13-.05-.19,.05h-.16l-.19-.03-.27,.03-.13,.03-.21,.08-.3,.05-.48,.11,.08-.51,.11-.48v-.43l.05-.13v-.54l.03-.27,.05-.27,.05-.13,.05-.27,.05-.19v-.27l-.03-.21,.08-.27-.03-.19,.08-.08,.03-.35,.03-.11-.05-.13,.05-.19,.05-.13v-.43l.08-.21,.03-.08v-.21l-.05-.19-.03-.21-.05-.19-.08-.08-.13-.05-.24-.11-.11,.03-.08,.11-.11,.11-.05,.21-.03,.13-.13,.13-.08,.19-.11,.08-.05,.19-.08,.13-.13,.16-.08,.19-.11,.13-.08,.24-.11,.19-.16,.16-.13,.16-.11,.13-.08,.03-.11,.19-.08,.05-.11,.13-.16,.24-.11,.11-.16,.19-.13,.11-.13,.19-.08,.13-.16,.11-.11,.19-.16,.19-.13,.16-.05,.11-.08,.11-.08,.16-.13,.11-.16,.16-.08,.19-.19,.11-.08,.16-.16,.08-.08,.11-.05,.11-.13,.13-.13,.03-.11,.13-.13,.13-.08,.13-.16,.13-.19,.11-.08,.08-.13,.05-.27,.05-.13-.13-.05-.21,.03-.24,.08-.27,.03-.08,.11-.24,.11-.19,.08-.29,.03-.13,.13-.19,.08-.13,.11-.27,.08-.19,.05-.21,.08-.13,.05-.05,.11-.32,.11-.19,.16-.38,.11-.13,.11-.24,.13-.3,.03-.19,.08-.08,.03-.16,.11-.21,.08-.21v-.38l-.03-.19-.08-.19-.08-.16-.19-.21-.24-.11-.11-.05-.13-.03h-.13l-.16,.03-.21,.03-.27,.11-.24,.24-.24,.19-.16,.13-.19,.16-.11,.13-.13,.16-.11,.11-.19,.21-.13,.11-.03,.16,.08,.08,.16,.13,.16-.05,.27-.27,.24-.11,.11-.19,.4-.32,.27-.29,.4-.21,.19,.05,.11,.13,.08,.21-.03,.24-.08,.13v.08l-.13,.3-.05,.21-.13,.38-.11,.21-.11,.24-.13,.19-.08,.21-.11,.11-.03,.24-.13,.24-.05,.03-.03,.19-.16,.21v.16l-.11,.16-.05,.16-.08,.21-.05,.19-.05,.11-.11,.38-.05,.13v.05l-.11,.16-.05,.19-.08,.21,.05,.16,.05,.21,.03,.16v.11l.13,.24,.13,.08,.11,.05,.13,.11,.13,.05,.16-.08,.3-.03,.13-.08,.11-.13,.19-.03,.03-.11,.24-.13,.21-.13,.21-.19,.19-.21,.08-.16,.21-.13,.21-.27,.16-.19,.16-.21,.05-.03,.13-.19,.16-.24,.13-.16,.19-.24,.16-.11,.11-.13,.19-.24,.24-.27,.13-.16,.16-.24,.11-.13,.19-.16,.11-.19,.08-.13,.19-.13,.13-.16,.08-.08,.19-.24,.05-.13,.27-.32,.08-.03-.08,.75-.03,.32-.05,.19v.16l.03,.19-.08,.13,.03,.21,.03,.13-.03,.16-.08,.16,.03,.24-.03,.19-.05,.16-.08,.19-.03,.05v.16l.05,.29-.13,.24,.03,.08-.08,.27,.03,.16-.08,.46-.08,.3h-.24l-.38,.19h-.13l-.21,.05-.13,.13-.11,.05-.16,.11-.19,.05-.21,.13-.54,.32-.3,.11-.32,.19-.11,.05-.3,.19h-.16l-.21,.21h-.16l-.08,.11-.11,.08-.3,.13-.24,.16-.11,.16-.08,.13-.19,.19-.21,.08-.16,.03v.11l-.27,.08-.13,.19-.11,.11-.19,.08v.08l-.13,.19-.24,.08-.11,.3-.16,.05-.03,.08-.32,.08-.03,.08-.05,.08-.13,.21-.3,.13-.13,.13-.08,.16-.16,.19-.08,.08-.11,.13-.08,.05-.21,.16v.11l-.16,.13-.13,.05-.13,.19v.16l-.13,.11-.19,.16-.03,.05-.24,.19-.16,.21-.13,.27-.03,.11-.24,.16-.11,.13-.03,.16-.13,.13-.05,.19-.19,.19-.05,.13-.21,.19-.05,.21-.03,.08v.13l-.21,.13-.05,.08-.11,.11v.27l-.05,.13-.13,.16,.11,.27v.16l-.05,.21-.08,.13-.08,.03,.03,.24,.05,.05,.11,.19,.05,.21,.08,.13v.11l.24,.11,.08,.16,.21,.08h.08l.19,.03,.21,.08,.27,.11,.21,.03,.27,.08,.16,.05h.19l.16-.08h.24l.19-.05h.27l.11-.08,.19-.05,.24-.03,.11-.08,.21-.11,.08-.05,.27-.03,.13-.13,.13-.03,.19-.21,.21-.05,.27-.08,.11-.13,.21-.08,.32-.32,.21-.05,.19-.13,.16-.16,.48-.38,.38-.43,.19-.16,.19-.13,.16-.27,.13-.08,.11-.19,.19-.24,.13-.16,.11-.13v-.16l.08-.11,.21-.13,.19-.21,.08-.19,.19-.21,.03-.13,.21-.19,.16-.16,.13-.11-.03-.21,.11-.21,.11-.05,.08-.21,.05-.13,.11-.24,.11-.11,.11-.24,.08-.08,.03-.21,.03-.11,.11-.19,.05-.21,.05-.13,.16-.35,.11-.24,.08-.13v-.27l.08-.03,.11-.19,.05-.21,.05-.19,.05-.16,.11-.24-.03-.13,.13-.27,.05-.21,.05-.19,.08-.32,.08-.13,.03-.24,.05-.08v-.27l.05-.3,.38-.03,.05-.08,.19-.08,.16-.03,.13-.11,.3,.03,.21-.16,.3-.05,.13-.03,.13,.03,.21-.05,.19,.03,.32,.08,.21-.08,.03-.05-.13-.08-.11-.08Zm-3.68,1.29l-.11,.35v.3l-.08,.24-.11,.11-.11,.21,.03,.32-.03,.16-.11,.13v.19l-.13,.24-.08,.11-.08,.16v.38l-.08,.19-.19,.24-.08,.29-.08,.24-.16,.24-.08,.13,.05,.16-.24,.21-.13,.11,.08,.16-.13,.11,.03,.16-.27,.16v.16l.03,.11-.11,.16-.19,.03-.03,.11-.08,.21-.19,.16-.05,.19-.19,.05-.08,.13-.11,.13-.05,.21-.11,.08-.03,.21-.24,.16-.05,.19-.08,.08-.11,.16-.08,.16-.38,.43-.13,.08-.11,.21-.21,.13-.19,.16-.16,.08-.21,.08v.16l-.24,.11-.21,.11-.08,.11-.27,.11-.13,.19-.19,.13h-.13l-.19,.21-.19-.03-.13,.05-.24,.16-.16,.03-.16,.13-.21,.08h-.24l-.16,.03h-.13l-.24,.11h-.13l-.19-.05-.13-.05-.16,.05-.19,.05-.27-.11-.19,.08-.11-.11-.16-.08-.16-.21v-.27l-.08-.3-.03-.13v-.38l.11-.32,.11-.19,.05-.05,.03-.16,.11-.11,.05-.13,.11-.21,.03-.16,.03-.13,.16-.13,.03-.19,.08-.19,.11-.13,.08-.08,.11-.13,.16-.13,.13-.13,.21-.19,.03-.16,.08-.13,.21-.16,.11-.24,.05-.13,.13-.03,.19-.11,.11-.32,.24-.13,.03-.05,.13-.19,.03-.08,.13-.11,.19-.16,.05-.21,.11-.08,.27-.16,.16-.19,.19-.03,.13-.21,.05-.08,.27-.24,.08-.13,.13-.08,.21-.16,.11-.05,.08-.16,.08-.08,.24-.16,.19-.13,.16-.08,.13-.11,.08-.13,.4-.24,.16-.13,.43-.21,.08-.13,.21-.03,.21-.13,.13-.08,.11-.11,.51-.21,.35-.19,.16-.11,.21-.16,.16-.08,.19-.05,.19-.08,.19-.19,.21-.05,.35-.11v.21Z"/>
  <polygon class="cls-1" points="239.48 13.25 239.54 13.04 239.54 12.88 239.48 12.72 239.51 12.58 239.46 12.42 239.43 12.18 239.29 12.02 239.27 11.83 239.11 11.67 239.03 11.48 238.92 11.32 238.89 11.24 238.79 11.08 238.6 10.95 238.54 10.84 238.3 10.68 238.19 10.57 238.06 10.49 237.9 10.36 237.79 10.33 237.63 10.14 237.39 10.03 237.2 9.9 236.99 9.74 236.26 9.5 236.18 9.44 236.32 9.34 236.59 9.23 236.77 9.12 236.85 8.99 236.96 8.99 237.09 8.8 237.23 8.75 237.31 8.67 237.47 8.61 237.58 8.48 237.74 8.4 237.79 8.16 237.95 8.1 238.06 7.97 238.25 7.78 238.44 7.62 238.52 7.49 238.62 7.35 238.68 7.19 238.7 7.08 238.81 6.87 238.97 6.65 239 6.44 239.11 6.28 239.19 6.17 239.21 5.96 239.19 5.8 239.29 5.69 239.29 5.37 239.32 5.23 239.19 4.91 239.24 4.8 239.13 4.59 239.13 4.43 239 4.13 238.92 3.97 238.87 3.78 238.76 3.65 238.7 3.51 238.57 3.43 238.41 3.17 238.19 2.98 238.14 2.95 237.95 2.79 237.74 2.66 237.6 2.52 237.47 2.52 237.36 2.33 237.15 2.25 236.99 2.17 236.85 2.12 236.69 2.04 236.5 1.99 236.34 1.93 236.05 1.85 235.75 1.82 235.54 1.77 235.24 1.72 235.16 1.72 234.81 1.69 234.52 1.64 234.25 1.64 234.06 1.61 233.55 1.64 233.42 1.64 233.02 1.66 232.64 1.66 232.37 1.72 232.18 1.74 231.94 1.74 231.65 1.82 231.33 1.88 231.19 1.88 231 1.91 230.92 1.96 230.74 1.99 230.58 2.01 230.17 2.04 229.8 2.23 229.58 2.25 229.21 2.41 228.86 2.44 228.67 2.66 228.37 2.68 228.27 2.9 227.97 2.87 227.36 3.14 227.3 3.38 227.06 3.38 226.98 3.46 226.71 3.57 226.6 3.81 226.39 3.89 226.34 3.97 226.15 4.08 226.01 4.13 225.8 4.29 225.69 4.61 225.42 4.72 225.34 4.83 225.32 4.99 224.75 5.55 224.78 5.74 224.59 5.82 224.48 6.09 224.3 6.2 224.22 6.41 224.3 6.79 224.14 6.92 223.97 7.16 224 7.57 223.81 7.7 223.84 7.81 223.76 8.02 223.89 8.21 223.89 8.37 223.76 8.64 223.79 8.85 223.87 9.02 223.97 9.1 224 9.26 224 9.52 224.11 9.61 224.24 9.85 224.3 9.87 224.57 10.06 224.73 10.28 224.91 10.41 225.16 10.44 225.24 10.6 225.48 10.49 225.77 10.52 225.93 10.54 226.07 10.46 226.2 10.46 226.42 10.41 226.66 10.3 226.93 10.09 227.38 9.82 227.52 9.63 227.68 9.36 227.73 9.2 227.89 9.04 228 8.8 228.13 8.53 228.16 8.42 228.27 8.18 228.29 7.94 228.29 7.75 228.24 7.59 228.13 7.51 227.97 7.54 227.81 7.75 227.76 8 227.65 8.29 227.52 8.51 227.46 8.67 227.38 8.85 227.27 9.12 227.06 9.39 226.77 9.69 226.55 9.77 226.31 9.98 226.04 10.06 225.75 10.09 225.37 9.98 225.21 10.03 225.07 9.85 224.81 9.61 224.67 9.36 224.59 9.15 224.51 8.85 224.51 8.64 224.54 8.34 224.59 8.16 224.67 7.94 224.73 7.57 224.81 7.43 224.89 7.22 224.94 6.9 225.05 6.68 225.16 6.57 225.26 6.44 225.37 6.22 225.5 6.04 225.75 5.77 225.77 5.66 225.85 5.42 226.07 5.29 226.2 5.12 226.77 4.56 226.98 4.43 227.17 4.27 227.46 4.05 227.65 4 227.7 3.94 227.95 3.81 228.29 3.65 228.72 3.43 229.53 3.14 230.01 2.98 230.66 2.82 231 2.74 231.3 2.68 231.97 2.58 232.45 2.52 232.75 2.47 233.1 2.44 233.34 2.44 233.45 2.41 233.58 2.47 233.74 2.41 233.9 2.39 234.28 2.41 234.41 2.39 234.52 2.44 234.65 2.44 234.81 2.47 235.03 2.44 235.35 2.52 235.59 2.52 235.83 2.55 235.89 2.58 236.08 2.6 236.32 2.66 236.56 2.74 236.77 2.84 237.09 2.98 237.31 3.09 237.47 3.22 237.58 3.3 237.74 3.41 237.87 3.49 237.95 3.6 238.11 3.76 238.44 4.24 238.52 4.43 238.54 4.64 238.6 4.91 238.57 5.02 238.6 5.26 238.57 5.5 238.52 5.71 238.46 5.98 238.46 6.04 238.28 6.25 238.19 6.47 238.14 6.6 238.06 6.68 237.93 6.9 237.79 7 237.74 7.14 237.66 7.24 237.47 7.38 237.39 7.46 237.36 7.51 237.26 7.57 236.96 7.86 236.8 7.94 236.69 8.05 236.5 8.16 236.37 8.29 236.24 8.32 235.89 8.61 235.67 8.67 235.48 8.77 235.27 8.91 235.11 9.02 234.87 9.1 234.71 9.2 234.47 9.31 234.33 9.34 234.2 9.42 234.04 9.5 233.85 9.58 233.66 9.63 233.53 9.69 233.28 9.77 233.02 9.9 232.91 9.98 232.64 9.98 232.53 10.03 232.32 10.06 232.16 10.06 232.08 10.2 232.13 10.44 232.16 10.52 232.24 10.71 232.24 10.92 232.43 10.97 232.69 10.73 232.8 10.76 233.04 10.73 233.18 10.71 233.28 10.62 233.47 10.62 233.66 10.6 233.85 10.6 234.06 10.52 234.22 10.38 234.44 10.38 234.57 10.36 234.81 10.22 234.89 10.22 235.03 10.12 235.3 10.06 235.48 10.01 235.65 10.12 235.75 10.09 235.97 10.06 236.08 10.09 236.24 10.14 236.34 10.12 236.45 10.17 236.67 10.25 236.99 10.3 237.15 10.38 237.31 10.49 237.39 10.49 237.58 10.54 237.69 10.6 237.87 10.71 238.03 10.79 238.11 10.92 238.25 11.08 238.44 11.19 238.62 11.4 238.7 11.62 238.89 11.86 238.87 11.99 238.87 12.15 238.95 12.32 238.92 12.48 238.97 12.74 238.95 12.93 238.92 13.07 238.97 13.15 238.95 13.42 238.97 13.55 238.73 13.87 238.84 14.09 238.7 14.19 238.65 14.43 238.54 14.43 238.57 14.7 238.52 14.81 238.41 14.89 238.3 14.94 238.25 15.16 238.25 15.35 238.09 15.4 237.93 15.48 237.93 15.56 237.77 15.8 237.66 15.86 237.55 16.04 237.52 16.18 237.42 16.29 237.15 16.29 236.96 16.53 236.72 16.72 236.59 16.8 236.48 16.85 236.34 16.9 236.13 17.14 236.02 17.23 235.89 17.28 235.73 17.36 235.62 17.49 235.46 17.49 235.27 17.52 235.19 17.68 235.06 17.73 234.68 17.82 234.49 17.87 234.44 18.03 234.36 18.11 234.2 18.08 233.98 18.16 233.79 18.22 233.53 18.19 233.5 18.27 233.26 18.33 233.07 18.41 232.91 18.46 232.69 18.41 232.51 18.49 232.37 18.51 232.18 18.49 232.08 18.57 231.97 18.51 231.78 18.54 231.57 18.57 231.46 18.65 231.3 18.62 231.08 18.51 230.92 18.54 230.76 18.43 230.6 18.38 230.41 18.27 230.28 18.16 230.15 18.08 230.04 18 229.93 17.9 229.8 17.68 229.64 17.47 229.61 17.36 229.5 17.14 229.5 16.98 229.45 16.72 229.53 16.63 229.56 16.53 229.56 16.37 229.66 16.31 229.66 15.91 229.77 15.72 230.01 15.53 230.04 15.37 230.07 15.27 230.17 15.21 230.47 15.16 230.49 14.84 230.58 14.81 230.74 14.54 230.58 14.43 230.44 14.43 230.28 14.46 230.15 14.52 229.98 14.68 229.88 14.76 229.66 14.81 229.64 14.97 229.47 15.13 229.37 15.27 229.26 15.37 229.18 15.7 229.13 15.83 229.05 16.04 229.02 16.47 229.07 16.61 229.05 16.8 229.02 17.04 229.18 17.14 229.18 17.28 229.31 17.39 229.31 17.55 229.39 17.68 229.5 17.73 229.58 17.98 229.72 18.08 229.85 18.27 229.88 18.41 230.17 18.51 230.25 18.7 230.41 18.75 230.52 18.81 230.71 18.89 230.87 18.89 230.98 18.92 231.38 19 231.54 19.02 231.62 19 232.05 19 232.27 19.08 232.4 19.05 232.72 19 232.91 19 233.2 18.92 233.45 18.89 233.55 18.86 233.9 18.86 233.98 18.81 234.2 18.67 234.41 18.67 234.49 18.57 234.68 18.54 234.87 18.35 235.06 18.33 235.3 18.35 235.51 18.16 235.81 18.06 235.99 17.98 236.05 17.95 236.21 17.82 236.34 17.73 236.45 17.71 236.56 17.73 236.75 17.6 236.83 17.47 236.96 17.36 237.09 17.31 237.15 17.17 237.34 17.12 237.39 17.06 237.55 16.82 237.74 16.66 237.93 16.55 238.09 16.5 238.14 16.29 238.25 16.15 238.33 15.99 238.41 15.86 238.57 15.7 238.65 15.64 238.76 15.53 238.79 15.35 238.89 15.24 239.11 15.13 239.16 14.89 239.16 14.81 239.21 14.62 239.32 14.57 239.38 14.25 239.43 14.09 239.46 13.87 239.56 13.68 239.54 13.55 239.56 13.39 239.48 13.25"/>
  <polygon class="cls-1" points="229.42 12.91 229.37 12.66 229.5 12.53 229.5 12.37 229.64 12.13 229.77 12.05 229.66 11.75 229.85 11.67 229.93 11.43 229.98 11.13 230.09 10.87 230.15 10.76 230.17 10.44 230.33 10.3 230.28 10.12 230.36 9.95 230.41 9.69 230.47 9.55 230.49 9.42 230.63 9.2 230.68 8.96 230.74 8.8 230.79 8.59 230.87 8.37 230.95 8.18 230.98 7.97 231 7.81 231.08 7.65 231.14 7.35 231.19 7.19 231.25 6.95 231.33 6.73 231.49 6.41 231.49 6.25 231.57 6.14 231.62 5.93 231.7 5.53 231.81 5.23 231.86 5.04 231.92 4.83 232.02 4.51 232.05 4.16 231.92 4 231.33 4.02 231.11 4.29 231 4.67 230.9 4.91 230.79 5.04 230.74 5.37 230.74 5.61 230.49 5.93 230.49 6.04 230.47 6.22 230.47 6.47 230.39 6.63 230.33 6.9 230.23 7.03 230.17 7.3 230.07 7.49 230.04 7.81 229.96 8.08 229.96 8.29 229.9 8.45 229.8 8.64 229.72 8.8 229.69 8.93 229.58 9.1 229.5 9.23 229.56 9.42 229.42 9.63 229.39 9.87 229.34 10.06 229.15 10.2 229.23 10.38 229.15 10.6 229.02 10.62 229.02 10.95 228.97 11.16 228.88 11.3 228.8 11.56 228.64 11.75 228.62 11.94 228.59 12.1 228.59 12.26 228.21 12.66 228.32 12.96 228.27 13.09 228.11 13.23 228.05 13.39 228.11 13.42 228.03 13.68 227.92 13.76 227.89 13.98 227.78 14.19 227.73 14.43 227.62 14.65 227.49 14.89 227.52 15.03 227.41 15.19 227.3 15.4 227.22 15.45 227.17 15.62 227.17 15.8 227.01 16.04 226.9 16.23 226.87 16.34 226.82 16.45 226.74 16.66 226.71 16.74 226.52 16.98 226.44 17.12 226.31 17.28 226.23 17.49 225.91 17.82 225.77 17.9 225.53 17.95 225.32 18.11 225.07 18.22 224.94 18.27 224.86 18.41 224.73 18.35 224.46 18.43 224.3 18.41 223.97 18.22 223.6 18.22 223.49 18.03 223.33 17.87 223.2 17.71 223.12 17.65 222.98 17.47 222.87 17.2 222.85 17.06 222.85 16.9 222.77 16.77 222.79 16.58 222.74 16.37 222.82 16.15 222.71 15.86 222.98 15.45 223.04 15.29 222.98 15.13 223.04 14.92 223.17 14.81 223.28 14.62 223.3 14.49 223.44 14.25 223.55 14.27 223.68 14.09 223.87 13.98 224 13.9 224.11 13.63 224.35 13.52 224.46 13.39 224.38 13.31 224.3 13.28 224 13.42 223.84 13.44 223.63 13.55 223.44 13.63 223.36 13.74 223.2 13.87 223.17 13.95 223.06 14.11 223.01 14.17 222.77 14.27 222.63 14.52 222.53 14.65 222.34 14.73 222.26 15 222.28 15.32 222.2 15.45 222.07 15.75 222.1 15.8 221.94 16.02 221.99 16.34 222.02 16.69 222.07 17.01 222.04 17.14 222.1 17.33 222.12 17.63 222.26 17.71 222.42 17.9 222.53 18.03 222.82 18.38 223.06 18.35 223.2 18.54 223.52 18.67 223.65 18.7 223.97 18.75 224.11 18.67 224.3 18.83 224.48 18.86 224.73 18.75 224.99 18.75 225.24 18.73 225.32 18.62 225.42 18.54 225.5 18.46 225.77 18.46 225.96 18.33 226.17 18.06 226.36 17.95 226.47 17.87 226.63 17.79 226.87 17.49 226.95 17.41 227.11 17.23 227.27 17.01 227.44 16.74 227.52 16.66 227.54 16.5 227.7 16.31 227.73 16.13 227.81 16.02 227.92 15.86 228.13 15.72 228.11 15.45 228.27 15.35 228.32 15.05 228.4 14.89 228.54 14.78 228.67 14.49 228.72 14.33 228.86 14.19 228.88 14.03 228.97 13.84 228.99 13.55 229.29 13.01 229.42 12.91"/>
  <polygon class="cls-1" points="247.26 8.4 247.15 8.32 247.1 8.16 247.05 8.02 246.91 7.97 246.73 7.78 246.65 7.67 246.43 7.67 246.22 7.65 246.08 7.65 245.92 7.7 245.81 7.73 245.73 7.75 245.57 7.83 245.44 7.92 245.28 7.97 245.2 8.05 245.04 8.1 244.93 8.18 244.53 8.51 244.42 8.61 244.31 8.67 244.18 8.8 244.07 8.93 243.99 9.02 243.91 9.12 243.83 9.2 243.69 9.31 243.61 9.42 243.48 9.55 243.45 9.61 243.32 9.69 243.26 9.66 243.34 9.34 243.45 8.96 243.51 8.69 243.53 8.45 243.53 8.29 243.51 8.16 243.48 8.05 243.45 7.86 243.4 7.83 243.29 7.75 243.24 7.65 243.13 7.62 242.94 7.59 242.94 7.51 242.73 7.46 242.51 7.49 242.41 7.57 242.33 7.57 242.08 7.59 241.95 7.7 241.82 7.78 241.74 7.86 241.65 7.92 241.49 8.13 241.39 8.21 241.25 8.37 241.12 8.59 241.04 8.72 240.93 8.91 240.85 9.04 240.72 9.28 240.58 9.42 240.61 9.58 240.69 9.66 240.85 9.74 241.01 9.69 241.23 9.36 241.47 9.07 241.65 8.77 242.19 8.24 242.49 8.13 242.67 8.16 242.75 8.24 242.84 8.37 242.86 8.56 242.84 8.67 242.75 8.91 242.73 9.02 242.73 9.12 242.65 9.2 242.65 9.47 242.62 9.55 242.57 9.66 242.54 9.77 242.54 9.87 242.49 9.93 242.49 10.09 242.38 10.2 242.38 10.28 242.33 10.44 242.3 10.49 242.3 10.54 242.33 10.62 242.19 10.79 242.14 10.92 242.14 11.05 242.11 11.16 242.03 11.24 241.98 11.46 241.9 11.64 241.9 11.72 241.84 11.81 241.82 11.94 241.71 12.13 241.74 12.21 241.65 12.32 241.63 12.53 241.57 12.66 241.55 12.8 241.52 12.91 241.49 12.96 241.47 12.99 241.39 13.15 241.39 13.28 241.36 13.36 241.2 13.55 241.17 13.68 241.2 13.74 241.12 13.82 241.17 13.9 241.14 14.06 241.04 14.17 241.01 14.33 240.93 14.52 240.85 14.65 240.8 14.68 240.85 14.86 240.74 14.89 240.72 15.03 240.74 15.19 240.74 15.24 240.61 15.35 240.64 15.51 240.69 15.72 240.74 15.78 240.72 15.86 240.85 15.88 241.12 15.91 241.28 15.86 241.44 15.91 241.57 15.7 241.57 15.51 241.65 15.37 241.65 15.29 241.76 15.11 241.76 15.05 241.82 14.86 241.79 14.84 241.84 14.73 241.87 14.52 241.84 14.38 241.9 14.33 242 14.17 242.03 14.11 242 13.98 242.06 13.9 242.06 13.66 242.14 13.55 242.22 13.39 242.22 13.17 242.38 13.01 242.38 12.85 242.41 12.74 242.41 12.58 242.46 12.4 242.57 12.34 242.65 12.15 242.62 12.1 242.67 12.02 242.67 11.91 242.81 11.83 242.81 11.72 242.89 11.56 242.89 11.43 242.94 11.32 243.02 11.32 243.05 11.19 243.08 11.11 243.18 10.92 243.24 10.87 243.37 10.62 243.48 10.54 243.53 10.49 243.61 10.38 243.72 10.33 243.88 10.12 243.99 10.03 244.12 9.93 244.2 9.87 244.34 9.74 244.5 9.61 244.55 9.5 244.66 9.39 244.79 9.28 244.93 9.2 245.25 8.93 245.41 8.83 245.55 8.75 245.81 8.61 245.97 8.51 246.08 8.48 246.24 8.48 246.4 8.59 246.54 8.67 246.62 8.85 246.59 9.04 246.59 9.36 246.54 9.52 246.54 9.63 246.46 9.79 246.35 9.93 246.32 10.12 246.32 10.22 246.46 10.28 246.78 10.3 246.97 10.14 247.13 9.98 247.18 9.85 247.21 9.66 247.32 9.47 247.32 9.42 247.34 9.28 247.4 9.15 247.4 8.83 247.34 8.61 247.26 8.4"/>
  <path class="cls-1" d="M256.57,15.19l-.24,.08-.13,.13-.19,.05-.19,.08-.19,.05-.13,.05-.19,.03-.11,.03-.24,.03-.08-.03-.27-.03-.13-.08-.21-.11-.03-.03-.16-.13-.03-.16-.13-.16,.03-.21-.08-.24v-.08l.03-.21v-.27l-.08-.3,.05-.11v-.16l.13-.24-.05-.13,.03-.32,.16-.21-.03-.24,.11-.21,.03-.13,.13-.19v-.19l.05-.11v-.19l.13-.19,.05-.24-.03-.16,.16-.16,.11-.21v-.4l.08-.13v-.11l.13-.21,.05-.13,.08-.19,.13-.21-.05-.13-.03-.05,.08-.16-.11-.13-.08-.11-.19,.05-.19-.11h-.19l-.29,.05-.08-.03-.16,.03-.19-.19-.16-.05-.19-.21-.21-.05-.35,.03-.16-.08-.4,.03-.21-.05-.35,.11h-.13l-.08,.11-.13,.03-.13,.11-.19,.08-.05,.13-.19,.08-.13,.16-.27,.13-.11,.13v.11l-.24,.11-.03,.16-.16,.13-.11,.11-.19,.13,.05,.13-.16,.11-.13,.19-.11,.11-.03,.11-.05,.05-.05,.16-.13,.05-.11,.19v.13l-.08,.05-.08,.13-.11,.21-.05,.08-.08,.08-.08,.16-.05,.24-.16,.13,.08,.19v.11l-.13,.16-.08,.13-.05,.13-.03,.08v.16l-.03,.08-.03,.19-.05,.05-.08,.11,.11,.24-.08,.08v.19l.03,.21-.03,.13,.03,.16,.03,.13,.08,.16v.16l.16,.24,.05,.19,.11,.13,.08,.16,.13,.16,.19,.16h.08l.3,.11h.16l.05,.03,.35,.05,.21-.03,.16-.11h.08l.16-.13,.11-.05,.32-.11,.11-.11,.27-.21,.29-.19,.11-.16,.13-.11,.13-.16,.13-.19,.08-.13,.03-.05,.16-.21,.11-.16,.08-.13,.16-.19,.16-.21,.19-.27,.05-.19,.19-.27h.13l-.03,.3-.03,.24,.03,.21-.03,.21-.08,.13,.08,.13-.03,.19-.08,.16,.13,.11-.03,.19v.19l.11,.19-.05,.24,.13,.19,.11,.21,.11,.13,.19,.16,.16,.13,.27,.13,.08,.03,.27,.11,.13-.03,.19,.05,.19-.03,.27-.08h.16l.21-.13,.19-.03,.11-.05,.21-.05,.11-.08,.16-.08,.21-.13,.13-.11-.05-.19-.21-.05Zm-3.03-4.59l.03,.13v.11l-.16,.08-.11,.16-.03,.11-.08,.11-.05,.13-.11,.21-.13,.16-.05,.08-.11,.24-.03,.05-.05,.13-.19,.19-.03,.08-.11,.08-.03,.08-.08,.19-.16,.16-.11,.19-.13,.16-.13,.21-.11,.08-.05,.16-.11,.13-.19,.19-.13,.21-.16,.16-.24,.19-.16,.13-.13,.13-.38,.16-.19,.11-.24,.05-.32-.13-.19-.08-.11-.27-.19-.11,.03-.21-.03-.19-.11-.16,.03-.27v-.13l-.03-.16,.08-.11,.05-.21-.05-.05v-.16l.11-.24-.03-.08,.08-.19,.05-.16,.08-.16,.11-.16,.03-.11v-.16l.03-.13,.11-.11,.16-.19,.05-.19,.19-.24,.08-.11,.19-.13-.05-.13,.13-.13,.05-.19,.16-.11v-.13l.24-.24v-.05l.11-.13,.19-.13,.11-.16,.08-.08,.13-.08,.08-.08,.19-.11,.21-.19,.13-.16h.16l.27-.13h.19l.38-.05,.27,.05,.11-.03,.21,.08,.24,.13,.11,.08,.19,.13,.08,.16-.03,.16-.03,.24v.08l.03,.08-.08,.11-.11,.27,.03,.27-.24,.32Z"/>
  <polygon class="cls-1" points="264.49 17.28 264.27 17.52 264.19 17.55 264.03 17.68 263.71 17.82 263.57 17.87 263.33 17.84 263.12 17.87 262.96 17.76 262.8 17.68 262.66 17.41 262.53 16.98 262.53 16.72 262.5 16.34 262.55 16.02 262.63 15.8 262.66 15.43 262.85 14.89 262.9 14.62 263.04 14.25 263.14 13.93 263.14 13.71 263.23 13.58 263.23 13.39 263.28 13.31 263.31 13.12 263.33 13.04 263.39 12.85 263.49 12.69 263.47 12.5 263.52 12.34 263.6 12.18 263.65 11.91 263.71 11.81 263.76 11.59 263.79 11.3 263.79 11.22 263.84 11 263.82 10.81 263.82 10.6 263.76 10.36 263.65 10.2 263.55 10.01 263.39 9.82 263.2 9.69 262.96 9.61 262.66 9.55 262.42 9.55 262.13 9.58 261.59 9.85 261.4 9.98 261.24 10.09 261.13 10.22 260.76 10.6 260.57 10.76 260.35 11.03 259.74 11.72 259.76 11.64 259.79 11.54 259.87 11.24 259.9 10.89 259.95 10.52 259.9 10.25 259.74 10.03 259.68 9.95 259.58 9.77 259.36 9.69 259.2 9.52 259.07 9.58 258.8 9.5 258.58 9.61 258.48 9.55 258.29 9.58 258.15 9.71 257.91 9.82 257.67 10.03 257.46 10.3 257.32 10.46 257.22 10.62 257.08 10.81 256.97 10.97 256.97 11.13 257.05 11.22 257.24 11.32 257.4 11.27 257.62 10.97 257.81 10.76 257.97 10.57 258.32 10.25 258.48 10.14 258.69 10.12 258.85 10.14 258.99 10.22 259.09 10.44 259.09 10.79 258.88 11.46 258.88 11.48 258.77 12.05 258.69 12.23 258.64 12.32 258.56 12.58 258.53 12.85 258.42 13.01 258.32 13.5 258.29 13.6 258.15 13.98 258.05 14.38 257.89 14.81 257.78 15.05 257.72 15.29 257.7 15.51 257.62 15.7 257.54 15.94 257.46 16.07 257.43 16.31 257.38 16.42 257.32 16.63 257.24 16.82 257.19 17.12 257.22 17.31 257.38 17.65 257.51 17.73 257.7 17.76 257.97 17.65 258.07 17.52 258.07 17.39 258.18 17.28 258.23 17.12 258.21 16.88 258.26 16.5 258.26 16.34 258.37 16.1 258.45 15.94 258.48 15.67 258.58 15.45 258.66 15.24 258.74 15.05 258.77 14.92 258.82 14.76 258.88 14.57 258.96 14.38 259.07 14.14 259.12 13.79 259.42 13.17 259.66 12.8 259.92 12.48 260.25 12.05 260.49 11.7 260.76 11.38 260.86 11.19 261.24 10.81 261.53 10.65 261.8 10.38 262.04 10.25 262.42 10.17 262.82 10.3 263.01 10.54 263.14 10.89 263.14 11.16 263.06 11.51 262.96 11.91 262.85 12.26 262.72 12.8 262.58 13.2 262.47 13.58 262.39 13.87 262.34 14.11 262.21 14.43 261.94 15.43 261.88 15.67 261.88 15.72 261.8 16.02 261.8 17.06 261.86 17.25 261.91 17.47 262.1 17.9 262.15 17.98 262.45 18.24 262.88 18.35 263.01 18.33 263.31 18.33 263.63 18.27 263.82 18.24 264.06 18.14 264.19 18.03 264.3 17.92 264.49 17.82 264.67 17.39 264.62 17.28 264.49 17.28"/>
  <path class="cls-1" d="M275.59,.51l-.11-.19-.11-.08-.19-.13-.16-.05-.21-.03-.24-.03-.32,.08-.4,.11-.21,.19-.16,.08-.13,.16-.11,.13-.16,.24-.05,.11-.16,.24-.16,.27-.11,.21-.05,.08-.08,.24-.08,.21-.16,.27-.11,.24-.05,.19-.11,.27-.05,.21-.05,.11-.03,.24-.13,.21-.03,.16-.05,.24-.08,.21-.05,.11-.08,.32v.11l-.03,.16-.05,.19-.08,.21-.03,.16v.19l-.03,.27-.05,.19-.03,.32-.05,.38-.05,.24-.03,.3v.38l-.35-.21-.03-.05-.38-.08-.11-.08-.13-.03-.24,.03-.08-.03-.21-.05-.13,.05-.11,.08-.08-.05-.27,.03-.13,.16-.27,.16-.13,.16-.05,.11h-.19l-.03,.08-.13,.19-.29,.16v.11l-.11,.05-.24,.24-.13,.16-.08,.13-.11,.08-.16,.21-.05,.13-.16,.05,.05,.16-.16,.13-.03,.16-.08,.11-.11,.03-.11,.24-.03,.05-.08,.13-.13,.13-.11,.19-.16,.24-.08,.27-.05,.16-.11,.08-.03,.24-.08,.03-.13,.27v.05l-.11,.19-.03,.21v.13l-.08,.16-.13,.24,.08,.27-.08,.24v.13l-.05,.05,.13,.27-.03,.13,.05,.19,.13,.24,.16,.16h.03l.03,.16,.16,.24,.16-.03,.24,.16,.27,.05h.05l.16-.03,.13-.03h.24l.11,.03,.24-.16,.03,.05,.24-.19h.13l.11-.05,.16-.11,.21-.16,.08-.13,.11-.16,.19-.05,.03-.19,.27-.08,.16-.21,.13-.11,.13-.27,.16-.13,.19-.19,.05-.11,.11-.08,.05-.19,.05-.13,.13-.05,.08-.16,.03-.13,.13-.13,.11-.08,.13-.19,.24-.35,.21-.24,.08,.05-.05,.32,.03,.21-.03,.38,.05,.3v.13l.03,.13v.11l.05,.3,.11,.21,.03,.24,.08,.13,.03,.05,.05,.24,.19,.21,.03,.11,.16,.19,.11,.19,.16,.13,.11,.13,.13,.05,.21,.16,.3-.03,.16,.03,.11-.05-.03-.16-.32-.16-.05-.08-.19-.16-.03-.03-.19-.3-.16-.32-.13-.24-.11-.27-.03-.16-.11-.24-.05-.16-.03-.24v-.16l.03-.19-.03-.16-.03-.11v-.16l.03-.24-.05-.24,.03-.13,.03-.11-.03-.19,.08-.4v-.16l.03-.11,.05-.24,.03-.11,.03-.19,.03-.13,.11-.27v-.08l.05-.16,.05-.32,.16-.21,.13-.19,.05-.19,.16-.16,.13-.21,.08-.16,.11-.13,.13-.13,.05-.16,.11-.11,.08-.16,.11-.13,.11-.21,.08-.13,.08-.16,.11-.11,.03-.16,.05-.13,.16-.21,.08-.13,.11-.13,.11-.21,.05-.21,.16-.21,.13-.38,.13-.27,.03-.11,.05-.16,.11-.21,.11-.24,.08-.16,.08-.13,.03-.16,.13-.21,.11-.32,.05-.21,.08-.16,.11-.24,.03-.11,.03-.19,.03-.16,.13-.43,.03-.3v-.48l-.13-.32Zm-4.72,9.1l-.05,.11v.19l-.05,.21-.03,.05-.05,.16-.08,.21-.05,.13-.11,.24-.11,.19-.08,.19-.13,.21-.13,.24-.24,.24-.13,.21-.08,.08-.11,.21-.13,.19-.13,.16-.16,.3-.03,.05-.21,.16-.19,.24-.13,.11-.11,.11-.19,.16-.05,.16-.13,.13-.13,.08-.11,.16-.21,.16-.19,.16-.16,.11-.08,.13-.35,.13-.13,.05-.16,.05h-.05l-.19-.05-.27-.03-.32-.4-.03-.32v-.3l.03-.35,.03-.11,.08-.24,.08-.21v-.16l.19-.3,.13-.24,.11-.27,.11-.21,.08-.24,.21-.27,.11-.27,.08-.16,.21-.32,.21-.35,.19-.21,.16-.11,.19-.3,.21-.19,.11-.24,.21-.08,.08-.08,.19-.16,.13-.21,.16-.11,.21-.16,.24-.05,.13-.08,.16-.05h.21l.16,.05,.13,.03,.13,.08,.19,.13,.21,.13,.11,.16,.11,.21-.05,.13,.05,.19Zm4.16-8.42l-.05,.3-.05,.21-.05,.11v.13l-.11,.13,.03,.16-.08,.11,.03,.13-.08,.11-.08,.13-.03,.19-.11,.24-.11,.27-.08,.24-.11,.11-.08,.32-.16,.24-.03,.24-.11,.13-.05,.13-.03,.08-.16,.24-.11,.32-.13,.38-.24,.43-.08,.16-.13,.16-.05,.21-.05,.13-.11,.13-.13,.21-.08,.13-.03,.08-.11,.19-.21,.3-.13,.21-.38,.43v-.35l.05-.48,.05-.38,.05-.27,.03-.27,.03-.21,.05-.21,.05-.16,.03-.16,.05-.3,.05-.21v-.13l.05-.19,.03-.16,.08-.13,.03-.16,.08-.13,.05-.24,.03-.13,.05-.11,.03-.13,.11-.27,.08-.32,.08-.19,.03-.16,.11-.16,.05-.19,.11-.24,.11-.21,.08-.24,.32-.56,.16-.27,.21-.27,.21-.21,.27-.16,.32-.05,.24,.11,.11,.3v.19Z"/>
</svg>