<?xml version="1.0" encoding="utf-8"?>
<!-- Generator: Adobe Illustrator 26.5.3, SVG Export Plug-In . SVG Version: 6.00 Build 0)  -->
<svg version="1.1" id="Layer_1" xmlns="http://www.w3.org/2000/svg" xmlns:xlink="http://www.w3.org/1999/xlink" x="0px" y="0px"
	 viewBox="0 0 1584 396" style="enable-background:new 0 0 1584 396;" xml:space="preserve">
<style type="text/css">
	.st0{fill:#F6F6F6;}
</style>
<g>
	<path class="st0" d="M1038.68,60.41c-1.19,19.59-2.46,38.47-3.45,57.36c-2.03,38.86-4.03,77.72-5.79,116.6
		c-0.58,12.75-1.12,25.59-0.17,38.27c0.41,5.41,3.64,11.52,7.45,15.59c9.81,10.48,20.65,19.99,31.94,30.71
		c7.78-13.18,15.66-24.74,21.49-37.24c2.58-5.53,1.18-12.98,1.28-19.56c0.15-10.05,0.04-20.11,0.04-30.63
		c-8.85,2.65-17.84,5.34-27.89,8.34c10.77-18.98,10.73-39.33,12.07-59.48c5.58,1.59,10.56,3.01,16.88,4.81
		c-1.77-13.89-3.37-26.4-4.86-38.13c13.92,1.53,28.34,4.07,42.81,4.49c21.38,0.61,41.95-3.43,59.38-17.05
		c4.66-3.64,8.69-8.1,12.84-12.02c0.15,10.84-7.52,23.81-19.04,31.83c-13.13,9.14-28.13,12.34-43.7,13.54
		c-9.44,0.72-18.92,1.08-28.85,1.62c0,5.61,0,11.25,0,17.69c33.69,0.92,67.43,3.27,100.87-11.77c-4.2,8.26-8.24,14.51-10.69,21.33
		c-6.66,18.51-13.87,36.96-18.61,55.99c-7.44,29.86-22.24,55.64-40.73,79.54c-10.45,13.5-22.28,25.93-33.35,38.95
		c-2.76,3.25-5.33,4.06-9.49,2.3c-40.89-17.34-75.16-43.31-102.65-78.12c-7.36-9.33-10.77-19.83-10.64-32.05
		c0.44-40.99,0.84-82-0.1-122.96c-0.53-23.12,6.95-42.6,20.45-60.59c17.83-23.77,39.46-43.67,62.88-62.23
		c4.14,5.72,7.95,11.45,12.22,16.82c23.97,30.15,57.58,37.34,91.42,19.19c9.17-4.92,17.62-11.17,26.3-16.74
		c-3.08,26.45-25.12,51.4-50.77,56.19c-15.75,2.94-31.45,0.24-46.19-5.25c-18.84-7.02-37.14-15.5-55.64-23.4
		C1043.98,63.32,1041.7,61.97,1038.68,60.41z M1156.32,213.14c-14.4,3.94-27.19,7.65-40.1,10.86c-4.77,1.18-6.68,3.15-6.72,8.29
		c-0.11,13.77-1.1,27.54-1.27,41.32c-0.07,5.51-1.87,9.75-5.35,13.89c-9.52,11.29-18.74,22.83-28.41,34.68
		c12.29,9.25,24.21,18.22,36.9,27.76C1139.54,308.34,1145.87,260.77,1156.32,213.14z"/>
	<path class="st0" d="M201.41,17.5c30.51,50.95,76.45,62.66,130.5,18.16c-1.16,4.47-1.77,7.95-2.96,11.22
		c-8.51,23.45-23.14,40.98-48.67,46.13c-15.66,3.16-31.43,0.25-46.16-5.29c-19.01-7.15-37.49-15.69-56.18-23.68
		c-2.21-0.95-4.3-2.19-7.02-3.59c-0.97,15.23-2.08,29.72-2.8,44.22c-2.44,49.55-4.01,99.16-7.45,148.63
		c-1.36,19.58,3.96,34.53,18.99,46.61c7.17,5.77,14.03,11.91,21.55,18.33c7.27-12.19,14.24-23.56,20.8-35.15
		c1.21-2.14,1.02-5.22,1.04-7.86c0.09-14.35,0.04-28.71,0.04-43.52c-8.25,2.45-17.37,5.17-25.39,7.55
		c2.49-9.59,5.62-19.24,7.4-29.14c1.77-9.83,2.2-19.89,3.2-29.74c4.83,1.46,9.82,2.98,16.41,4.97c-1.74-13.98-3.31-26.49-4.83-38.74
		c10.25,1.45,21.13,3.25,32.07,4.47c17.24,1.92,34.19,0.13,50.55-5.7c12.68-4.52,23.25-12.2,32.81-24.33
		c-0.36,3.39-0.31,5.06-0.74,6.59c-5.71,20.44-20.55,31.65-40.03,36.18c-13.93,3.24-28.53,3.63-42.84,5.19
		c-2.64,0.29-5.34,0.04-8.59,0.04c0,5.99,0,11.6,0,18.06c33.93,1.01,67.88,3.34,101.75-12.08c-14.12,23.62-22.34,47.33-29.14,71.69
		c-3.9,13.98-7.69,28.24-13.85,41.29c-15.18,32.18-37.99,59.06-62.36,84.69c-2.6,2.73-4.86,2.07-7.66,0.99
		c-18.19-7.01-34.81-16.84-50.52-28.25c-18.75-13.62-36.12-28.73-50.5-47.05c-8.24-10.5-12.9-21.7-12.68-35.65
		c0.66-42.62,0.56-85.26,0.07-127.88c-0.18-15.64,3.92-29.6,11.91-42.68c14.79-24.2,34.65-43.9,55.97-62.25
		C191.08,25.68,196.26,21.68,201.41,17.5z M206.66,322.16c12.46,9.38,24.27,18.27,36.91,27.79c28.13-41.28,34.43-89.09,44.97-136.8
		c-15.28,4.16-29.33,7.86-43.26,11.97c-1.4,0.41-2.84,3.22-2.95,5c-0.98,15.6-1.52,31.22-2.55,46.81c-0.19,2.82-1.35,6.02-3.1,8.24
		C227.02,297.43,217.03,309.45,206.66,322.16z"/>
	<path class="st0" d="M1237.64,209.71c3.55-19.56-6.95-34.27-14.95-51.44c14.97,10.39,28.52,19.79,43.09,29.89
		c0.18-3.17,0.4-5.29,0.41-7.41c0.03-16.06,0.34-32.14-0.08-48.19c-0.39-15.13,3.78-28.78,11.5-41.57
		c14.67-24.29,34.49-44.02,55.76-62.44c5.11-4.43,10.45-8.58,15.39-12.62c6.45,8.06,12.03,16.27,18.84,23.29
		c23.74,24.44,53.26,29.16,83.47,13.3c9.77-5.13,18.77-11.72,27.82-17.45c-2.39,25.39-28.74,60.97-67.3,56.77
		c-29.92-3.26-56.77-14.75-83.07-28.23c-2.89-1.48-5.72-3.09-9.62-5.21c-0.82,11.34-1.7,21.86-2.31,32.39
		c-2.13,36.99-3.47,74.05-6.58,110.95c-1.16,13.8,3.97,21.04,16.32,25.41c0.35-0.55,0.97-1.3,1.36-2.16
		c13.32-28.67,30.25-38.03,61.72-33.58c17.02,2.41,33.29,7.48,48.58,15.45c1.18,0.62,2.27,1.42,2.92,1.82
		c-10.14,1.17-20.63,1.48-30.68,3.74c-20.2,4.54-38.13,14.46-54.3,27.06c-6.66,5.19-13.07,5.91-20.57,4.47
		c-8.64-1.65-17.29-3.3-25.63-4.9c-4.81,25.42,3.84,46.82,20.48,65.23c9.23,10.21,19.87,19.15,29.69,28.85
		c3.05,3.01,5.13,0.88,7.52-0.56c15.78-9.53,32.4-17.12,50.59-20.72c16.66-3.3,33.21-3.13,49.28,3.16
		c3.59,1.41,6.97,3.33,10.65,5.87c-40.66,2.05-72.19,19.37-94.25,54.47c-4.92-2.11-10.16-3.86-14.92-6.49
		c-38.46-21.17-69.8-50.09-94.01-86.67c-6.06-9.16-9.28-19.08-8.66-30.27c0.46-8.21,0.34-16.48-0.1-24.7
		c-0.11-2.05-2-4.85-3.85-5.82C1254.17,217.23,1245.89,213.59,1237.64,209.71z"/>
	<path class="st0" d="M354.98,158.26c14.43,10.04,28.38,19.74,43.46,30.23c0-13.06-0.09-24.7,0.03-36.34
		c0.1-10.49-0.55-21.1,0.85-31.42c2.53-18.56,13.16-33.49,24.56-47.69c16.07-20.03,34.85-37.33,54.99-53.21
		c0.79-0.62,1.69-1.1,2.52-1.64c5.18,6.83,9.85,13.83,15.35,20.1c23.48,26.72,54.91,32.79,86.49,16.42
		c9.61-4.98,18.44-11.45,28.32-17.67c-0.42,1.99-0.67,3.83-1.19,5.58c-7.49,25.06-21.91,43.97-48.43,50.27
		c-16.22,3.86-32.65,0.68-48-4.99c-18.67-6.9-36.76-15.35-55.07-23.2c-2.4-1.03-4.65-2.43-7.8-4.1c-0.55,7.27-1.13,13.7-1.5,20.14
		c-1.82,31.65-3.58,63.29-5.35,94.94c-0.67,11.92-1.08,23.86-2.03,35.76c-0.34,4.27,0.65,6.93,4.52,8.96
		c3.97,2.09,7.61,4.81,11.6,7.38c2.4-4.52,4.36-8.81,6.83-12.77c11.24-17.98,27.09-27.36,48.74-24.79
		c19.97,2.37,39.19,7.5,57.05,17.02c0.88,0.47,1.7,1.05,2.56,1.59c-0.35,0.43-0.6,0.96-0.8,0.94c-28.71-2.5-54.13,7.49-75.98,24.24
		c-14.55,11.15-28.23,11.83-44.09,7.17c-3.35-0.98-6.82-1.55-10.87-2.46c-1.45,12.92-1.84,25.43,3.18,37.64
		c6.39,15.54,16.55,28.36,28.6,39.82c5.53,5.25,11.37,10.18,16.86,15.47c3.11,3,5.57,3.37,9.55,0.91
		c17.81-11.05,36.84-19.32,57.86-21.92c18.36-2.27,36.11-0.4,53.65,10.57c-7.17,0.8-12.94,1.23-18.63,2.12
		c-31.95,5-56.72,21.18-74.21,48.25c-2.34,3.62-4.32,3.14-7.48,1.86c-23.71-9.61-43.5-25.01-62.07-42.07
		c-15.97-14.67-30.6-30.57-42.08-49.15c-5.77-9.33-9.38-19.01-8.63-30.25c0.54-8.2,0.35-16.48-0.07-24.7
		c-0.1-2.03-1.92-4.79-3.73-5.78c-6.86-3.72-14.13-6.7-21.04-10.33c-1.53-0.8-2.91-3.03-3.23-4.8c-1.35-7.55-1.28-15.51-3.62-22.7
		C363.82,175.02,359.08,166.98,354.98,158.26z"/>
	<path class="st0" d="M780,257.9c0,10.5-0.75,21.07,0.16,31.49c1.71,19.58-5.88,35.53-18.54,49.27
		c-10.3,11.18-21.88,21.17-32.63,31.95c-3.48,3.49-6.62,2.99-10.44,1.2c-19-8.91-34.45-22.41-48.76-37.39
		c-3.13-3.27-5.99-6.8-8.96-10.22c-10.08-11.61-15.61-24.4-14.72-40.47c1.12-20.32,1.18-40.81,0.02-61.13
		c-1.17-20.42,5.84-37.25,19.18-51.64c10.47-11.3,22.14-21.5,33.21-32.26c2.72-2.65,5.3-2.08,8.38-0.71c20.18,9,36.36,23.19,51.3,39
		c2.69,2.84,5.16,5.89,7.7,8.87c9.96,11.69,15.95,24.5,14.3,40.56C779.13,236.81,780,247.4,780,257.9z M695.92,153.46
		c-8,7.58-14.23,15.33-13.7,26.75c0.23,4.91-0.39,9.87-0.62,14.8c-1.52,32.69-3.15,65.38-4.4,98.08c-0.17,4.35,0.77,9.2,2.68,13.09
		c9.86,20.09,25.59,34.49,45.38,44.63c1.58,0.81,3.63,1.44,5.3,1.16c4.84-0.8,13.08-11.14,13.35-16.33
		c1.92-37.21,3.65-74.43,5.81-111.62c0.72-12.37-2.51-23.23-10.08-32.79C727.64,176.04,712.88,163.94,695.92,153.46z"/>
	<path class="st0" d="M860.62,171.15c-0.76,15.22-1.71,29.99-2.18,44.77c-1.21,38.06-2.14,76.13-3.34,114.19
		c-0.16,5.12,1.12,8.78,5.52,11.97c6.8,4.93,13.01,10.66,20.61,17c-11.18,1-19.86,4.38-24.35,15.16
		c-11.36-8.95-22.16-17.36-32.77-26c-1.15-0.93-1.61-3.26-1.61-4.95c-0.08-44.47-0.14-88.94,0.07-133.41
		c0.02-5.03,1.66-10.04,2.6-15.4c-14.13-13.92-34.11-22.16-58.36-23.42c10.9-6.65,22.13-9.31,33.47-11.82
		c15.65-3.45,28.58,0.26,36.77,12.12c6.77-5.85,13.56-11.7,20.32-17.58c6.64-5.79,13.24-11.61,20.34-17.84
		c9.79,15.59,21.22,28.2,39.75,30.52c18.3,2.28,32.74-7.02,46.7-17.88c-4.46,27.03-27.06,42.74-54.19,38.61
		c-16.04-2.44-31.19-7.34-45.62-14.63C863.29,172.03,862.14,171.72,860.62,171.15z"/>
</g>
</svg>
